<svg id="Capa_1" enable-background="new 0 0 512 512" height="512" viewBox="0 0 512 512" width="512" xmlns="http://www.w3.org/2000/svg"><g><g><g><g><g><path d="m502 266h-28.056c-5.523 0-10-4.477-10-10s4.477-10 10-10h28.056c5.523 0 10 4.477 10 10s-4.477 10-10 10z"/></g></g><g><g><path d="m420.213 102.98c-2.556 0-5.111-.973-7.063-2.921-3.91-3.9-3.917-10.232-.016-14.142l19.839-19.885c3.901-3.909 10.232-3.917 14.142-.016 3.91 3.9 3.917 10.232.016 14.142l-19.839 19.885c-1.953 1.958-4.516 2.937-7.079 2.937z"/></g></g><g><g><path d="m440.052 448.904c-2.563 0-5.126-.979-7.079-2.937l-19.839-19.885c-3.901-3.91-3.894-10.242.016-14.142 3.909-3.901 10.241-3.894 14.142.016l19.839 19.885c3.901 3.91 3.894 10.242-.016 14.142-1.951 1.948-4.508 2.921-7.063 2.921z"/></g></g></g><g><g><g><path d="m38.056 266h-28.056c-5.523 0-10-4.477-10-10s4.477-10 10-10h28.056c5.523 0 10 4.477 10 10s-4.477 10-10 10z"/></g></g><g><g><path d="m71.948 448.904c-2.556 0-5.111-.973-7.063-2.921-3.91-3.9-3.917-10.232-.016-14.142l19.839-19.885c3.9-3.909 10.232-3.917 14.142-.016 3.91 3.9 3.917 10.232.016 14.142l-19.839 19.885c-1.953 1.958-4.516 2.937-7.079 2.937z"/></g></g><g><g><path d="m91.787 102.98c-2.563 0-5.126-.979-7.079-2.937l-19.839-19.884c-3.901-3.91-3.894-10.242.016-14.142 3.909-3.901 10.241-3.895 14.142.016l19.839 19.885c3.901 3.91 3.894 10.242-.016 14.142-1.952 1.947-4.508 2.92-7.063 2.92z"/></g></g></g><g><path d="m393.299 113.201c-.005-.009-.011-.018-.016-.027-13.965-23.32-33.757-42.845-57.237-56.466-24.225-14.053-51.904-21.48-80.046-21.48s-55.821 7.428-80.046 21.48c-23.48 13.621-43.272 33.146-57.237 56.466-.005.009-.011.018-.016.027-14.852 24.812-22.702 53.298-22.702 82.378v120.841c0 29.08 7.851 57.566 22.702 82.378.005.009.011.018.016.027 13.965 23.32 33.757 42.845 57.237 56.466 24.225 14.053 51.904 21.48 80.046 21.48s55.821-7.428 80.046-21.48c23.48-13.621 43.272-33.146 57.237-56.466.005-.009.011-.018.016-.027 14.852-24.812 22.702-53.298 22.702-82.378v-120.84c0-29.08-7.85-57.567-22.702-82.379zm-21.166 3.954-34.117 36.488-72.016-46.985v-51.082c43.169 3.01 81.887 25.432 106.133 61.579zm-126.133-61.579v51.082l-72.016 46.986-34.117-36.488c24.246-36.148 62.964-58.57 106.133-61.58zm-130.001 140.004c0-20.93 4.641-41.502 13.509-60.22l31.249 33.42v174.44l-31.249 33.42c-8.869-18.718-13.509-39.29-13.509-60.22zm23.868 199.265 34.117-36.488 72.016 46.985v51.082c-43.169-3.01-81.887-25.432-106.133-61.579zm126.133 61.579v-51.082l72.016-46.986 34.117 36.488c-24.246 36.148-62.964 58.57-106.133 61.58zm130.001-140.004c0 20.93-4.641 41.502-13.509 60.22l-32.908-35.194v-37.752c0-5.523-4.477-10-10-10s-10 4.477-10 10v36.283l-73.584 48.01-75.244-49.092v-165.789l75.244-49.093 73.584 48.01v41.258c0 5.523 4.477 10 10 10s10-4.477 10-10v-42.727l32.908-35.194c8.869 18.718 13.509 39.29 13.509 60.22z"/><g><path d="m339.58 268.67c-4.293 0-8.203-2.857-9.51-6.943-1.252-3.912.062-8.337 3.299-10.887 3.38-2.662 8.185-2.859 11.771-.481 3.426 2.272 5.115 6.581 4.18 10.579-1.046 4.473-5.144 7.732-9.74 7.732z"/></g></g></g></g></svg>