<?xml version="1.0" standalone="no"?>
<!DOCTYPE svg PUBLIC "-//W3C//DTD SVG 20010904//EN"
 "http://www.w3.org/TR/2001/REC-SVG-20010904/DTD/svg10.dtd">
<svg version="1.0" xmlns="http://www.w3.org/2000/svg"
 width="700.000000pt" height="700.000000pt" viewBox="0 0 700.000000 700.000000"
 preserveAspectRatio="xMidYMid meet">
<metadata>
Created by potrace 1.11, written by Peter Selinger 2001-2013
</metadata>
<g transform="translate(0.000000,700.000000) scale(0.100000,-0.100000)"
fill="#000000" stroke="none">
<path d="M2155 6881 c-628 -162 -1066 -364 -1460 -675 -304 -240 -520 -528
-623 -831 -71 -209 -66 -72 -68 -1780 -2 -1461 -1 -1545 16 -1645 93 -526 494
-997 1147 -1347 300 -161 708 -312 1051 -388 37 -9 76 -18 87 -20 49 -12 288
-54 365 -65 47 -6 96 -13 110 -15 14 -2 54 -7 90 -10 36 -4 73 -9 83 -11 133
-24 952 -24 1085 1 10 1 46 6 82 9 171 18 289 35 420 61 14 3 52 10 85 16 141
25 416 99 594 159 385 129 739 309 1010 512 125 94 138 105 262 226 294 289
452 587 499 941 12 92 12 3011 0 3091 -30 196 -78 341 -165 499 -92 166 -174
272 -335 431 -312 310 -765 568 -1309 746 -149 49 -520 144 -563 144 -56 0
-109 -36 -130 -90 -6 -16 -9 -295 -9 -737 0 -639 2 -716 16 -747 23 -49 51
-63 173 -91 365 -83 638 -178 947 -330 204 -101 386 -214 530 -329 97 -79 256
-236 305 -303 l30 -41 -59 -74 c-91 -113 -204 -217 -392 -361 -139 -107 -463
-279 -694 -370 -285 -112 -679 -219 -955 -261 -180 -27 -325 -43 -455 -52 -55
-3 -120 -8 -145 -10 -60 -4 -503 -4 -560 0 -25 2 -90 7 -145 10 -114 8 -160
13 -265 26 -42 6 -92 12 -113 15 -92 12 -306 53 -422 81 -33 8 -67 16 -75 18
-23 6 -188 53 -260 74 -84 25 -326 116 -410 154 -231 105 -497 260 -625 365
-5 4 -35 28 -65 53 -92 75 -199 181 -261 258 l-59 73 31 44 c47 66 204 222
299 299 356 285 819 498 1389 638 112 27 214 56 227 64 43 29 54 73 55 212 1
147 -12 190 -65 223 -63 39 -157 14 -190 -50 -9 -16 -17 -60 -18 -97 l-3 -67
-145 -37 c-542 -137 -1053 -378 -1410 -665 -52 -42 -102 -84 -111 -93 -8 -10
-28 -29 -45 -43 -16 -14 -57 -55 -92 -92 l-63 -67 -26 58 c-62 141 -90 335
-71 492 8 59 42 203 57 235 64 141 92 194 146 275 66 97 88 124 179 220 149
156 357 313 566 427 30 17 77 42 103 57 26 14 52 26 58 26 6 0 23 9 37 19 15
10 29 19 32 18 3 0 28 10 55 22 210 95 544 203 810 262 121 27 150 40 175 82
36 58 19 141 -37 181 -46 34 -103 30 -308 -23z m2750 -298 c156 -43 407 -129
520 -178 508 -220 875 -494 1090 -815 191 -285 252 -577 180 -861 -9 -35 -22
-77 -30 -94 -7 -16 -20 -47 -29 -68 l-15 -38 -48 53 c-39 43 -109 110 -236
224 -7 6 -59 45 -116 87 -321 239 -785 454 -1251 578 -63 17 -138 37 -167 45
l-52 14 1 546 0 545 32 -6 c17 -4 72 -18 121 -32z m-4554 -2548 c146 -181 321
-338 549 -490 l114 -76 1 -509 c0 -280 -2 -518 -5 -528 -4 -18 -15 -12 -90 45
-295 224 -503 489 -589 752 -49 150 -54 197 -56 559 -1 189 1 340 5 335 4 -4
36 -44 71 -88z m6373 -242 c-1 -186 -5 -356 -8 -378 -55 -340 -276 -667 -631
-935 -51 -38 -95 -70 -97 -70 -2 0 -3 238 -3 530 l1 530 104 68 c218 142 438
339 575 515 33 42 60 77 61 77 0 0 0 -152 -2 -337z m-5368 -502 c32 -15 124
-54 204 -86 80 -32 146 -59 148 -60 4 -3 3 -2477 -2 -2482 -8 -9 -389 159
-415 183 -2 2 -3 542 -2 1201 0 659 1 1215 1 1236 0 20 1 37 3 37 2 0 30 -13
63 -29z m4354 -143 c0 -183 0 -2140 0 -2244 l0 -61 -127 -61 c-125 -59 -273
-122 -290 -122 -6 0 -9 1761 -4 2416 l1 71 63 23 c79 28 261 105 307 129 19
11 38 19 43 20 4 1 7 -77 7 -171z m-696 -639 c1 -298 -1 -544 -4 -548 -17 -26
-519 -145 -650 -154 l-25 -2 0 553 c0 545 0 553 20 557 17 4 163 30 280 50 26
4 52 10 82 17 5 1 71 18 148 38 77 20 142 35 144 33 3 -2 5 -247 5 -544z
m-2920 521 c42 -12 83 -23 93 -25 10 -2 48 -10 86 -19 37 -9 79 -18 95 -21 15
-3 38 -7 52 -10 14 -3 70 -13 125 -22 55 -9 105 -20 110 -24 7 -5 10 -200 10
-556 l0 -548 -47 2 c-57 3 -316 55 -441 88 -50 14 -113 30 -139 37 -27 6 -48
14 -49 17 -1 3 -2 252 -2 554 -2 514 -1 547 15 547 10 0 51 -9 92 -20z m1056
-166 c52 -3 119 -7 149 -8 41 -1 55 -5 60 -18 8 -24 6 -2472 -2 -2485 -4 -7
-17 -10 -30 -8 -12 2 -80 6 -152 10 -71 4 -141 8 -155 10 -14 2 -37 4 -52 4
l-28 1 0 1255 0 1255 58 -4 c31 -3 100 -8 152 -12z m910 -31 c2 -501 -1 -2457
-3 -2459 -9 -9 -362 -30 -412 -25 -12 1 -13 2487 -1 2499 4 4 24 7 44 8 66 2
307 15 309 18 1 1 16 3 33 4 30 2 30 2 30 -45z m-3730 -165 c64 -86 248 -271
360 -360 52 -41 145 -108 205 -149 61 -40 112 -76 115 -80 3 -4 5 -243 4 -531
0 -426 -3 -522 -14 -520 -27 6 -200 146 -300 243 -208 202 -374 490 -405 704
-3 22 -9 47 -12 55 -8 20 -12 700 -4 700 3 -1 26 -28 51 -62z m6395 -280 c-2
-189 -6 -356 -9 -373 -60 -286 -183 -509 -401 -729 -104 -104 -310 -270 -324
-262 -7 5 -7 1053 0 1059 2 2 54 37 114 77 218 144 450 352 559 503 28 37 53
67 57 67 4 0 5 -154 4 -342z m-1710 -1279 l0 -549 -50 -14 c-70 -21 -246 -67
-270 -72 -11 -2 -76 -15 -145 -28 -69 -14 -145 -28 -170 -31 l-45 -7 0 556 c0
487 2 557 15 561 8 2 31 6 50 9 19 3 60 10 90 16 30 6 71 13 90 16 42 7 305
68 375 87 28 8 52 12 55 10 2 -2 5 -251 5 -554z m-2879 516 c76 -20 153 -38
169 -41 17 -2 37 -7 45 -9 17 -5 42 -9 160 -30 47 -8 96 -17 110 -19 14 -3 30
-5 35 -5 7 -1 10 -193 10 -556 l0 -556 -50 6 c-72 9 -277 51 -386 79 -116 30
-209 55 -229 61 -13 4 -15 75 -15 555 0 302 3 550 6 550 3 0 68 -16 145 -35z"/>
<path d="M2313 6360 c-89 -54 -81 -190 13 -235 84 -40 194 24 194 113 0 111
-114 179 -207 122z"/>
</g>
</svg>
